<svg xmlns="http://www.w3.org/2000/svg" xmlns:xlink="http://www.w3.org/1999/xlink" width="500" zoomAndPan="magnify" viewBox="0 0 375 374.999991" height="500" preserveAspectRatio="xMidYMid meet" version="1.0"><defs><g/><clipPath id="de8ae218b9"><path d="M 183.453125 114.988281 L 249.453125 114.988281 L 249.453125 261.988281 L 183.453125 261.988281 Z M 183.453125 114.988281 " clip-rule="nonzero"/></clipPath></defs><g clip-path="url(#de8ae218b9)"><path fill="#2a5f73" d="M 180.242188 262.5 L 178.199219 184.644531 L 179.222656 112.503906 Z M 183.253906 262.5 L 181.210938 184.644531 L 182.234375 112.503906 Z M 228.886719 221.417969 C 230.636719 221.417969 232.070312 222.839844 232.070312 224.613281 C 232.070312 226.371094 230.636719 227.808594 228.886719 227.808594 C 227.136719 227.808594 225.707031 226.371094 225.707031 224.613281 C 225.707031 222.839844 227.136719 221.417969 228.886719 221.417969 Z M 198.8125 207.707031 C 200.5625 207.707031 201.992188 209.144531 201.992188 210.902344 C 201.992188 212.660156 200.5625 214.097656 198.8125 214.097656 C 197.0625 214.097656 195.632812 212.660156 195.632812 210.902344 C 195.632812 209.144531 197.0625 207.707031 198.8125 207.707031 Z M 205.359375 226.050781 C 207.125 226.050781 208.539062 227.472656 208.539062 229.246094 C 208.539062 231.003906 207.125 232.425781 205.359375 232.425781 C 203.609375 232.425781 202.195312 231.003906 202.195312 229.246094 C 202.195312 227.472656 203.609375 226.050781 205.359375 226.050781 Z M 228.03125 208.789062 C 229.78125 208.789062 231.210938 210.210938 231.210938 211.964844 C 231.210938 213.742188 229.78125 215.164062 228.03125 215.164062 C 226.28125 215.164062 224.847656 213.742188 224.847656 211.964844 C 224.847656 210.210938 226.28125 208.789062 228.03125 208.789062 Z M 226.179688 180.199219 C 227.929688 180.199219 229.359375 181.632812 229.359375 183.394531 C 229.359375 185.152344 227.929688 186.589844 226.179688 186.589844 C 224.410156 186.589844 222.996094 185.152344 222.996094 183.394531 C 222.996094 181.632812 224.410156 180.199219 226.179688 180.199219 Z M 208.070312 194.871094 C 209.820312 194.871094 211.234375 196.308594 211.234375 198.070312 C 211.234375 199.828125 209.820312 201.265625 208.070312 201.265625 C 206.300781 201.265625 204.886719 199.828125 204.886719 198.070312 C 204.886719 196.308594 206.300781 194.871094 208.070312 194.871094 Z M 197.195312 164.136719 C 198.949219 164.136719 200.363281 165.554688 200.363281 167.3125 C 200.363281 169.089844 198.949219 170.507812 197.195312 170.507812 C 195.429688 170.507812 194.015625 169.089844 194.015625 167.3125 C 194.015625 165.554688 195.429688 164.136719 197.195312 164.136719 Z M 212.089844 163.660156 C 213.84375 163.660156 215.273438 165.097656 215.273438 166.859375 C 215.273438 168.617188 213.84375 170.050781 212.089844 170.050781 C 210.339844 170.050781 208.910156 168.617188 208.910156 166.859375 C 208.910156 165.097656 210.339844 163.660156 212.089844 163.660156 Z M 217.175781 150.1875 C 218.925781 150.1875 220.339844 151.605469 220.339844 153.382812 C 220.339844 155.140625 218.925781 156.578125 217.175781 156.578125 C 215.40625 156.578125 213.992188 155.140625 213.992188 153.382812 C 213.992188 151.605469 215.40625 150.1875 217.175781 150.1875 Z M 202.027344 142.1875 C 203.777344 142.1875 205.207031 143.609375 205.207031 145.382812 C 205.207031 147.140625 203.777344 148.5625 202.027344 148.5625 C 200.277344 148.5625 198.847656 147.140625 198.847656 145.382812 C 198.847656 143.609375 200.277344 142.1875 202.027344 142.1875 Z M 212.984375 152.351562 C 213.085938 151.925781 213.253906 151.523438 213.488281 151.148438 C 211.015625 149.710938 208.558594 148.257812 206.082031 146.804688 C 205.949219 147.210938 205.746094 147.597656 205.496094 147.9375 C 207.984375 149.410156 210.492188 150.878906 212.984375 152.351562 Z M 201.488281 167.3125 C 203.59375 167.210938 205.695312 167.09375 207.800781 166.992188 C 207.800781 166.941406 207.800781 166.90625 207.800781 166.859375 C 207.800781 166.46875 207.851562 166.078125 207.953125 165.691406 C 205.730469 165.808594 203.507812 165.925781 201.289062 166.027344 C 201.421875 166.453125 201.488281 166.875 201.488281 167.3125 Z M 202.917969 225.695312 C 203.273438 225.441406 203.660156 225.257812 204.082031 225.121094 C 202.953125 221.671875 201.808594 218.238281 200.679688 214.789062 C 200.292969 214.976562 199.890625 215.113281 199.453125 215.179688 C 200.613281 218.679688 201.757812 222.179688 202.917969 225.695312 Z M 205.980469 201.855469 C 205.613281 201.636719 205.257812 201.382812 204.972656 201.0625 C 203.609375 203.089844 202.246094 205.101562 200.882812 207.132812 C 201.269531 207.335938 201.605469 207.605469 201.910156 207.910156 C 203.273438 205.898438 204.636719 203.867188 205.980469 201.855469 Z M 224.933594 214.960938 C 224.628906 214.65625 224.378906 214.300781 224.191406 213.910156 C 218.925781 218.003906 213.65625 222.09375 208.386719 226.167969 C 208.691406 226.472656 208.960938 226.828125 209.164062 227.199219 C 214.414062 223.125 219.664062 219.050781 224.933594 214.960938 Z M 227.375 207.707031 C 226.144531 204.542969 224.917969 201.398438 223.6875 198.238281 L 223.671875 198.203125 L 223.6875 198.152344 C 224.511719 194.671875 225.320312 191.1875 226.144531 187.703125 C 225.707031 187.703125 225.289062 187.636719 224.867188 187.5 C 224.042969 191.035156 223.214844 194.570312 222.390625 198.101562 C 222.359375 198.222656 222.359375 198.355469 222.410156 198.476562 C 223.652344 201.6875 224.898438 204.882812 226.144531 208.09375 C 226.53125 207.910156 226.953125 207.773438 227.375 207.707031 Z M 211.738281 200.300781 C 211.519531 200.671875 211.234375 201.011719 210.914062 201.300781 C 215.355469 204.15625 219.816406 207.011719 224.277344 209.871094 C 224.496094 209.480469 224.746094 209.144531 225.066406 208.855469 C 220.625 206 216.179688 203.15625 211.738281 200.300781 Z M 216.484375 157.640625 C 216.046875 157.574219 215.644531 157.441406 215.257812 157.238281 C 214.464844 159.027344 213.691406 160.820312 212.917969 162.613281 C 213.335938 162.699219 213.742188 162.851562 214.128906 163.054688 C 214.902344 161.242188 215.691406 159.453125 216.484375 157.640625 Z M 224.898438 225.882812 C 224.765625 225.476562 224.695312 225.035156 224.695312 224.613281 L 209.484375 228.011719 C 209.601562 228.402344 209.667969 228.824219 209.667969 229.246094 C 209.667969 229.246094 209.667969 229.265625 209.667969 229.28125 Z M 218.539062 157.472656 C 222.609375 164.472656 226.667969 171.488281 230.738281 178.488281 L 230.804688 178.609375 L 230.707031 178.691406 C 230.152344 179.183594 229.59375 179.691406 229.058594 180.179688 C 229.375 180.46875 229.644531 180.804688 229.863281 181.179688 C 230.351562 180.738281 230.839844 180.300781 231.3125 179.875 L 231.464844 179.742188 L 231.566406 179.910156 C 231.933594 180.535156 232.289062 181.160156 232.660156 181.804688 C 235.992188 188.871094 239.324219 195.921875 242.65625 202.988281 L 242.691406 203.074219 L 242.640625 203.140625 C 241.023438 205.457031 239.421875 207.773438 237.824219 210.089844 L 237.773438 210.15625 L 237.707031 210.15625 C 235.839844 210.308594 233.972656 210.480469 232.121094 210.632812 C 232.253906 211.054688 232.320312 211.476562 232.320312 211.917969 C 233.71875 211.796875 235.097656 211.679688 236.480469 211.5625 L 236.832031 211.527344 L 230.453125 220.707031 C 230.855469 220.878906 231.226562 221.097656 231.566406 221.367188 L 238.480469 211.390625 L 238.566406 211.375 C 238.886719 211.359375 239.1875 211.324219 239.507812 211.289062 L 239.625 211.289062 L 239.675781 211.390625 C 241.074219 215.113281 241.496094 219.152344 240.6875 223.058594 C 240.0625 226.035156 238.769531 228.824219 236.867188 231.191406 C 236.242188 231.984375 235.554688 232.714844 234.8125 233.390625 L 234.660156 233.523438 L 231.464844 227.929688 C 231.125 228.199219 230.757812 228.402344 230.351562 228.554688 L 233.652344 234.335938 L 233.550781 234.421875 C 232.355469 235.316406 231.042969 236.078125 229.679688 236.667969 C 225.574219 238.425781 221.046875 238.648438 216.71875 237.734375 C 216.519531 237.699219 216.300781 237.75 216.148438 237.886719 C 211.839844 241.875 206.554688 245.105469 200.53125 245.175781 C 198.644531 245.191406 196.777344 244.902344 194.976562 244.34375 L 194.757812 244.277344 L 194.890625 244.089844 C 197.667969 240.390625 200.445312 236.6875 203.222656 232.984375 C 202.851562 232.765625 202.515625 232.492188 202.230469 232.1875 C 199.335938 236.027344 196.441406 239.882812 193.5625 243.71875 L 193.476562 243.820312 L 193.359375 243.769531 C 190.53125 242.636719 187.90625 240.929688 185.566406 238.96875 L 185.5 238.917969 L 185.5 238.851562 C 185.5 230.34375 185.5 221.839844 185.5 213.355469 L 185.5 213.199219 L 185.652344 213.183594 C 188.679688 212.898438 191.710938 212.609375 194.757812 212.320312 C 194.605469 211.917969 194.539062 211.492188 194.519531 211.054688 C 191.574219 211.339844 188.628906 211.613281 185.683594 211.898438 L 185.5 211.917969 L 185.5 211.730469 C 185.5 208.636719 185.5 205.558594 185.5 202.464844 L 185.5 202.023438 L 185.785156 202.363281 C 185.921875 202.515625 186.105469 202.601562 186.308594 202.582031 C 191.609375 202.261719 196.894531 201.957031 202.179688 201.636719 C 202.429688 201.621094 202.652344 201.449219 202.734375 201.214844 C 203.085938 200.265625 203.421875 199.320312 203.777344 198.371094 C 203.761719 198.269531 203.761719 198.171875 203.761719 198.070312 C 203.761719 196.9375 204.199219 195.871094 204.972656 195.058594 C 205.039062 194.90625 205.089844 194.738281 205.160156 194.570312 L 205.308594 194.164062 L 205.460938 194.570312 C 205.460938 194.585938 205.460938 194.605469 205.476562 194.621094 C 205.8125 194.367188 206.199219 194.144531 206.605469 194.011719 C 206.402344 193.453125 206.199219 192.910156 206 192.355469 L 205.980469 192.300781 L 206 192.253906 C 206.589844 190.59375 207.195312 188.957031 207.785156 187.316406 L 207.800781 187.28125 L 207.816406 187.265625 C 210.476562 184.1875 213.136719 181.09375 215.792969 178.015625 L 215.878906 177.914062 L 215.996094 177.980469 C 216.113281 178.050781 216.230469 178.117188 216.367188 178.203125 L 216.417969 178.21875 L 216.433594 178.269531 C 217.105469 179.925781 217.796875 181.566406 218.488281 183.207031 L 218.519531 183.292969 L 218.453125 183.375 C 215.644531 186.976562 212.816406 190.59375 209.988281 194.214844 C 210.375 194.398438 210.726562 194.652344 211.046875 194.957031 C 213.941406 191.238281 216.855469 187.519531 219.765625 183.796875 C 219.902344 183.613281 219.933594 183.34375 219.832031 183.121094 C 219.363281 181.988281 218.890625 180.855469 218.417969 179.722656 L 218.234375 179.285156 L 218.65625 179.539062 C 219.851562 180.230469 221.046875 180.925781 222.257812 181.617188 C 222.425781 181.230469 222.660156 180.855469 222.949219 180.535156 C 221.128906 179.488281 219.296875 178.421875 217.476562 177.355469 L 217.425781 177.324219 L 217.410156 177.273438 C 216.453125 174.988281 215.507812 172.691406 214.546875 170.40625 C 214.195312 170.644531 213.808594 170.847656 213.402344 170.984375 C 214.128906 172.742188 214.867188 174.515625 215.59375 176.273438 L 215.660156 176.425781 L 215.507812 176.496094 C 215.40625 176.527344 215.308594 176.597656 215.238281 176.679688 L 215.238281 176.699219 C 212.410156 179.976562 209.582031 183.257812 206.757812 186.539062 C 206.707031 186.589844 206.671875 186.65625 206.640625 186.742188 C 206.234375 187.839844 205.847656 188.9375 205.445312 190.039062 L 205.292969 190.445312 L 205.140625 190.039062 C 203.742188 186.265625 202.347656 182.496094 200.949219 178.726562 L 200.917969 178.625 L 201 178.558594 C 203.726562 175.71875 206.453125 172.875 209.195312 170.050781 C 208.878906 169.75 208.605469 169.410156 208.386719 169.039062 C 205.511719 172.015625 202.652344 174.972656 199.789062 177.949219 L 199.773438 177.964844 L 199.753906 177.964844 C 195.582031 180.652344 191.40625 183.34375 187.25 186.03125 L 186.695312 186.386719 L 187.015625 185.8125 C 189.773438 180.941406 192.535156 176.070312 195.277344 171.1875 C 194.890625 171 194.539062 170.746094 194.234375 170.441406 C 191.425781 175.414062 188.613281 180.382812 185.804688 185.355469 L 185.5 185.894531 L 185.5 185.285156 C 185.5 179.84375 185.5 174.382812 185.5 168.9375 L 185.5 168.800781 L 185.652344 168.785156 C 188.074219 168.515625 190.515625 168.242188 192.9375 167.988281 C 192.90625 167.769531 192.890625 167.535156 192.890625 167.3125 C 192.890625 167.109375 192.90625 166.890625 192.9375 166.6875 C 191.339844 166.859375 189.742188 167.042969 188.140625 167.210938 L 187.46875 167.28125 L 188.042969 166.925781 C 191.746094 164.507812 195.464844 162.089844 199.167969 159.6875 L 199.167969 159.671875 C 199.335938 159.585938 199.453125 159.433594 199.484375 159.25 C 200.175781 156.054688 200.867188 152.859375 201.554688 149.660156 C 201.117188 149.613281 200.699219 149.511719 200.3125 149.339844 C 199.636719 152.433594 198.964844 155.546875 198.308594 158.65625 L 198.289062 158.726562 L 198.242188 158.757812 C 194.066406 161.464844 189.910156 164.167969 185.753906 166.875 L 185.5 167.042969 L 185.5 166.738281 C 185.5 157.761719 185.5 148.765625 185.5 139.789062 L 185.5 139.550781 L 185.71875 139.636719 C 189.773438 141.175781 193.832031 142.710938 197.886719 144.25 C 197.988281 143.828125 198.171875 143.441406 198.390625 143.066406 C 194.132812 141.445312 189.875 139.839844 185.601562 138.214844 L 185.5 138.179688 L 185.5 138.0625 C 185.5 136.019531 185.5 133.953125 185.5 131.910156 L 185.5 131.859375 L 185.535156 131.808594 C 187.855469 128.613281 191.070312 126.5 194.957031 125.804688 C 197.820312 125.28125 200.816406 125.585938 203.558594 126.515625 C 204.601562 126.871094 205.628906 127.308594 206.589844 127.851562 L 206.707031 127.917969 L 206.65625 128.035156 C 205.277344 132.382812 203.878906 136.726562 202.480469 141.089844 C 202.917969 141.125 203.339844 141.242188 203.726562 141.410156 C 204.9375 137.605469 206.148438 133.820312 207.378906 130.015625 L 207.515625 129.574219 L 207.683594 130.015625 C 210.121094 136.558594 212.5625 143.101562 214.988281 149.644531 C 215.355469 149.425781 215.761719 149.273438 216.179688 149.171875 C 213.792969 142.746094 211.402344 136.320312 208.996094 129.914062 L 208.777344 129.304688 L 209.265625 129.726562 C 209.582031 130.03125 209.921875 130.335938 210.207031 130.675781 C 211.621094 132.195312 212.664062 134.175781 212.496094 136.304688 C 212.476562 136.660156 212.75 136.964844 213.085938 136.996094 C 213.183594 136.996094 213.269531 136.980469 213.355469 136.964844 L 213.355469 136.949219 L 213.371094 136.949219 C 214.230469 136.726562 215.257812 136.863281 216.113281 137.066406 C 218.402344 137.605469 220.660156 138.960938 222.425781 140.515625 L 222.511719 140.582031 L 222.460938 140.699219 C 222.441406 140.734375 222.425781 140.769531 222.410156 140.820312 C 221.179688 143.660156 219.933594 146.5 218.691406 149.339844 C 219.109375 149.511719 219.511719 149.730469 219.851562 150.015625 C 221.046875 147.261719 222.222656 144.503906 223.402344 141.765625 L 223.503906 141.53125 L 223.671875 141.714844 C 225.472656 143.644531 226.800781 145.960938 227.507812 148.527344 C 228.265625 151.335938 228.199219 154.242188 227.523438 157.066406 C 227.441406 157.40625 227.660156 157.761719 228.011719 157.84375 C 228.03125 157.84375 228.0625 157.863281 228.082031 157.863281 L 228.097656 157.863281 C 230.132812 158.234375 232.167969 158.792969 234.074219 159.621094 C 236.949219 160.855469 239.472656 162.75 240.886719 165.640625 C 241.359375 166.621094 241.695312 167.667969 241.882812 168.75 L 241.914062 168.9375 L 241.730469 168.9375 C 241.578125 168.953125 241.445312 169.003906 241.328125 169.105469 C 238.195312 171.929688 235.066406 174.753906 231.917969 177.59375 L 231.78125 177.730469 L 231.683594 177.558594 C 227.675781 170.660156 223.671875 163.78125 219.683594 156.882812 C 219.328125 157.136719 218.941406 157.339844 218.539062 157.472656 Z M 239.894531 209.363281 C 241.242188 207.402344 242.605469 205.457031 243.953125 203.496094 C 244.085938 203.292969 244.101562 203.039062 243.984375 202.820312 C 240.601562 195.617188 237.203125 188.429688 233.804688 181.230469 C 233.804688 181.210938 233.785156 181.195312 233.769531 181.160156 C 233.347656 180.433594 232.929688 179.707031 232.507812 178.980469 L 232.4375 178.863281 L 232.539062 178.777344 C 235.621094 175.988281 238.71875 173.199219 241.796875 170.40625 L 242.050781 170.171875 L 242.066406 170.507812 C 242.148438 172.046875 242 173.601562 241.730469 175.109375 C 241.226562 177.863281 240.28125 180.585938 239.171875 183.140625 C 239.054688 183.445312 239.171875 183.796875 239.441406 183.949219 L 239.457031 183.96875 C 241.007812 184.964844 242.4375 186.199219 243.648438 187.605469 C 245.683594 189.96875 247.183594 192.859375 247.636719 195.988281 C 248.140625 199.40625 247.316406 202.667969 245.484375 205.558594 C 244.472656 207.132812 243.210938 208.535156 241.8125 209.769531 L 241.78125 209.800781 L 241.710938 209.820312 C 241.328125 209.855469 240.9375 209.886719 240.550781 209.90625 L 240.46875 209.921875 L 240.417969 209.855469 C 240.316406 209.71875 240.164062 209.632812 239.996094 209.617188 L 239.742188 209.582031 Z M 185.585938 188.632812 C 190.28125 185.609375 194.992188 182.582031 199.6875 179.554688 L 199.855469 179.4375 L 199.921875 179.621094 C 201.488281 183.832031 203.039062 188.042969 204.601562 192.253906 L 204.617188 192.300781 L 204.601562 192.355469 C 203.644531 194.992188 202.683594 197.644531 201.722656 200.285156 L 201.691406 200.386719 L 201.574219 200.386719 C 196.472656 200.691406 191.355469 200.996094 186.242188 201.300781 C 186.054688 201.316406 185.902344 201.398438 185.785156 201.535156 L 185.5 201.871094 L 185.5 201.433594 C 185.5 197.207031 185.5 192.996094 185.5 188.769531 L 185.5 188.683594 Z M 241.929688 211.085938 L 242.082031 211.070312 C 242.21875 211.054688 242.351562 211.003906 242.453125 210.917969 C 244.019531 209.550781 245.433594 208.011719 246.558594 206.25 C 248.578125 203.089844 249.453125 199.539062 248.917969 195.800781 C 248.425781 192.4375 246.8125 189.328125 244.605469 186.773438 C 243.464844 185.4375 242.132812 184.238281 240.667969 183.222656 L 240.566406 183.15625 L 240.617188 183.039062 C 241.644531 180.570312 242.503906 177.980469 242.992188 175.34375 C 243.613281 171.929688 243.582031 168.261719 242.03125 165.082031 C 240.484375 161.902344 237.757812 159.808594 234.578125 158.421875 C 232.828125 157.660156 230.957031 157.136719 229.074219 156.746094 L 228.921875 156.710938 L 228.957031 156.558594 C 229.511719 153.769531 229.476562 150.929688 228.738281 148.191406 C 227.84375 144.929688 226.007812 142.054688 223.535156 139.789062 C 221.585938 137.996094 219.007812 136.441406 216.417969 135.816406 C 215.625 135.628906 214.765625 135.511719 213.960938 135.5625 L 213.792969 135.578125 L 213.792969 135.425781 C 213.65625 133.277344 212.578125 131.351562 211.164062 129.796875 C 210.191406 128.730469 209.046875 127.835938 207.816406 127.089844 C 207.800781 127.074219 207.800781 127.074219 207.785156 127.054688 L 207.765625 127.054688 C 206.570312 126.328125 205.292969 125.738281 203.964844 125.296875 C 201.015625 124.300781 197.804688 123.980469 194.722656 124.535156 C 190.433594 125.316406 186.914062 127.664062 184.390625 131.214844 L 184.371094 131.234375 C 184.273438 131.351562 184.222656 131.503906 184.222656 131.65625 C 184.222656 133.972656 184.222656 136.304688 184.222656 138.621094 C 184.222656 148.496094 184.222656 158.351562 184.222656 168.226562 C 184.222656 191.832031 184.222656 215.449219 184.222656 239.054688 L 184.222656 239.222656 C 184.222656 239.410156 184.304688 239.59375 184.457031 239.710938 C 187.132812 241.980469 190.144531 243.957031 193.445312 245.175781 L 193.445312 245.191406 C 193.476562 245.191406 193.492188 245.207031 193.527344 245.207031 C 195.78125 246.035156 198.140625 246.476562 200.546875 246.460938 C 206.773438 246.390625 212.207031 243.195312 216.71875 239.121094 L 216.789062 239.070312 L 216.855469 239.070312 C 221.332031 239.949219 225.960938 239.664062 230.183594 237.851562 C 233.179688 236.550781 235.820312 234.554688 237.859375 232.003906 C 239.894531 229.484375 241.277344 226.492188 241.929688 223.3125 C 242.757812 219.320312 242.402344 215.195312 241.039062 211.375 L 240.957031 211.171875 L 241.175781 211.15625 C 241.425781 211.140625 241.679688 211.105469 241.929688 211.085938 " fill-opacity="1" fill-rule="evenodd"/></g><g fill="#2a5f73" fill-opacity="1"><g transform="translate(150.435002, 180.749988)"><g><path d="M 4.234375 0 L 1.890625 0 L 1.890625 -21 L 5.546875 -21 L 8.09375 -6.453125 L 10.6875 -21 L 14.34375 -21 L 14.34375 0 L 12 0 L 12 -18.953125 L 9.453125 -4.5 L 6.78125 -4.5 L 4.234375 -18.953125 Z M 4.234375 0 "/></g></g></g><g fill="#2a5f73" fill-opacity="1"><g transform="translate(166.664989, 180.749988)"><g><path d="M 5.8125 2.453125 C 5.570312 3.554688 5.164062 4.394531 4.59375 4.96875 C 4.03125 5.550781 3.320312 5.84375 2.46875 5.84375 C 1.625 5.84375 0.734375 5.394531 -0.203125 4.5 L 0.59375 2.9375 C 1.332031 3.601562 1.972656 3.9375 2.515625 3.9375 C 3.359375 3.9375 3.921875 3.113281 4.203125 1.46875 L 4.4375 0.09375 L 0.484375 -16.203125 L 2.796875 -16.203125 L 5.375 -4.4375 L 7.625 -16.203125 L 9.953125 -16.203125 Z M 5.8125 2.453125 "/></g></g></g><g fill="#2a5f73" fill-opacity="1"><g transform="translate(129.821992, 207.310621)"><g><path d="M 1.890625 0 L 1.890625 -21 L 5.3125 -21 C 6.8125 -21 7.960938 -20.578125 8.765625 -19.734375 C 9.578125 -18.898438 9.984375 -17.429688 9.984375 -15.328125 C 9.984375 -12.890625 9.132812 -11.390625 7.4375 -10.828125 C 9.4375 -10.390625 10.4375 -8.78125 10.4375 -6 C 10.4375 -3.78125 10.023438 -2.222656 9.203125 -1.328125 C 8.390625 -0.441406 7.253906 0 5.796875 0 Z M 8.09375 -5.4375 L 8.09375 -6.234375 C 8.09375 -8.734375 7.304688 -9.984375 5.734375 -9.984375 L 4.296875 -9.984375 L 4.296875 -1.890625 L 5.734375 -1.890625 C 6.492188 -1.890625 7.078125 -2.148438 7.484375 -2.671875 C 7.890625 -3.191406 8.09375 -4.113281 8.09375 -5.4375 Z M 7.765625 -15.09375 L 7.765625 -15.8125 C 7.765625 -17.070312 7.5625 -17.9375 7.15625 -18.40625 C 6.757812 -18.875 6.191406 -19.109375 5.453125 -19.109375 L 4.296875 -19.109375 L 4.296875 -11.578125 L 5.453125 -11.578125 C 6.992188 -11.578125 7.765625 -12.75 7.765625 -15.09375 Z M 7.765625 -15.09375 "/></g></g></g><g fill="#2a5f73" fill-opacity="1"><g transform="translate(141.281979, 207.310621)"><g><path d="M 6.90625 -16.65625 L 7.5 -16.625 L 7.3125 -14.0625 C 7.039062 -14.207031 6.773438 -14.28125 6.515625 -14.28125 C 4.992188 -14.28125 4.222656 -12.703125 4.203125 -9.546875 L 4.203125 0 L 1.890625 0 L 1.890625 -16.203125 L 3.296875 -16.203125 L 3.953125 -13.4375 C 4.359375 -15.582031 5.34375 -16.65625 6.90625 -16.65625 Z M 6.90625 -16.65625 "/></g></g></g><g fill="#2a5f73" fill-opacity="1"><g transform="translate(149.021973, 207.310621)"><g><path d="M 1.34375 -5.015625 C 1.34375 -6.910156 1.625 -8.203125 2.1875 -8.890625 C 2.75 -9.585938 3.550781 -9.9375 4.59375 -9.9375 C 5.632812 -9.9375 6.453125 -9.535156 7.046875 -8.734375 L 7.046875 -11.875 C 7.046875 -13.800781 6.445312 -14.765625 5.25 -14.765625 C 4.226562 -14.765625 3.257812 -14.171875 2.34375 -12.984375 L 1.53125 -14.671875 C 1.988281 -15.234375 2.570312 -15.703125 3.28125 -16.078125 C 3.988281 -16.460938 4.710938 -16.65625 5.453125 -16.65625 C 8.054688 -16.65625 9.359375 -14.894531 9.359375 -11.375 L 9.359375 0 L 7.953125 0 L 7.46875 -1.953125 C 7.25 -1.148438 6.882812 -0.546875 6.375 -0.140625 C 5.863281 0.253906 5.289062 0.453125 4.65625 0.453125 C 3.570312 0.453125 2.75 0.109375 2.1875 -0.578125 C 1.625 -1.273438 1.34375 -2.570312 1.34375 -4.46875 Z M 5.125 -1.4375 C 5.707031 -1.4375 6.160156 -1.644531 6.484375 -2.0625 C 6.816406 -2.488281 7.003906 -3.25 7.046875 -4.34375 L 7.046875 -5.15625 C 7.003906 -6.34375 6.816406 -7.164062 6.484375 -7.625 C 6.160156 -8.082031 5.707031 -8.3125 5.125 -8.3125 C 4.125 -8.3125 3.625 -7.359375 3.625 -5.453125 L 3.625 -4.296875 C 3.625 -2.390625 4.125 -1.4375 5.125 -1.4375 Z M 5.125 -1.4375 "/></g></g></g><g fill="#2a5f73" fill-opacity="1"><g transform="translate(160.061962, 207.310621)"><g><path d="M 1.890625 0 L 1.890625 -16.203125 L 4.203125 -16.203125 L 4.203125 0 Z M 1.796875 -19.375 L 1.796875 -22.203125 L 4.296875 -22.203125 L 4.296875 -19.375 Z M 1.796875 -19.375 "/></g></g></g><g fill="#2a5f73" fill-opacity="1"><g transform="translate(166.151958, 207.310621)"><g><path d="M 4.203125 0 L 1.890625 0 L 1.890625 -16.203125 L 3.296875 -16.203125 L 3.90625 -13.625 C 4.320312 -15.644531 5.367188 -16.65625 7.046875 -16.65625 C 8.085938 -16.65625 8.882812 -16.191406 9.4375 -15.265625 C 9.988281 -14.347656 10.265625 -12.671875 10.265625 -10.234375 L 10.265625 0 L 7.953125 0 L 7.953125 -11.046875 C 7.953125 -13.546875 7.460938 -14.796875 6.484375 -14.796875 C 5.003906 -14.796875 4.242188 -12.65625 4.203125 -8.375 Z M 4.203125 0 "/></g></g></g></svg>